<?xml version="1.0" encoding="utf-8"?>
<!-- Generator: Adobe Illustrator 24.0.3, SVG Export Plug-In . SVG Version: 6.00 Build 0)  -->
<svg version="1.1" id="Capa_1" xmlns="http://www.w3.org/2000/svg" xmlns:xlink="http://www.w3.org/1999/xlink" x="0px" y="0px"
	 viewBox="0 0 80 80" style="enable-background:new 0 0 80 80;" xml:space="preserve">
<style type="text/css">
	.st0{fill:#3273DC;}
</style>
<g id="HdLu2m_1_">
	<g>
		<path class="st0" d="M8,70.2c-1.3-0.7-1.6-1.8-1.6-3.2c0.1-6.8,0-13.6,0-20.4c0-2.2-0.2-4.3,1-6.4c-1,0-1.9,0-2.8,0
			c-1.5,0-2.3-1-1.9-2.5c0.3-1,0.6-2,1-3c0.7-1.5,1.9-2.2,3.5-2.3c0.9,0,1.8,0,2.7,0c0.9-2.4,1.7-4.9,2.6-7.3
			c1.1-2.9,2.1-5.9,3.3-8.8c0.7-1.8,2.3-2.8,4-3.6c1.1-0.5,2.2-1.1,3.4-1.4c2-0.5,4.1-0.9,6.1-1.1c4.2-0.3,8.5-0.5,12.7-0.5
			c3.3,0,6.6,0.4,9.9,0.7c2.8,0.2,5.5,0.9,8.1,2.1c2.3,1,3.7,2.7,4.6,5.2c1.6,4.7,3.4,9.4,5.1,14.1c0.1,0.2,0.5,0.5,0.7,0.5
			c0.5,0.1,1,0,1.5,0c2.6-0.1,4,1,4.7,3.4c0.2,0.7,0.4,1.3,0.6,2c0.3,1.3-0.4,2.3-1.7,2.4c-0.9,0-1.8,0-2.9,0c1.4,2.5,0.9,5.2,1,7.7
			c0,6.4,0,12.7,0,19.1c0,1.4-0.3,2.5-1.6,3.2c-3.9,0-7.8,0-11.7,0c-1.4-0.7-1.8-1.9-1.8-3.5c0-1.3,0-2.6,0-3.9
			c-12.4,0-24.7,0-37.1,0c0,1.3,0,2.6,0,3.9c0.1,1.5-0.4,2.7-1.8,3.5C15.8,70.2,11.9,70.2,8,70.2z M64.1,33.3
			c-0.5-1.9-1-3.8-1.6-5.7c-0.8-2.5-1.9-5-2.6-7.5c-0.5-1.7-1.7-2.5-3.2-3C53,16,49,15.7,45.2,15.6c-4.8-0.1-9.6-0.3-14.4,0.3
			c-2.4,0.3-4.8,0.6-7.1,1.1c-1.4,0.3-2.7,0.9-3.3,2.4c-0.6,1.5-1.2,3-1.7,4.5c-1,3.1-1.9,6.3-2.9,9.4C22.1,37,57,37,64.1,33.3z
			 M18.8,51.7c0,0,0-0.1,0-0.1c1.4-0.1,2.8-0.2,4.2-0.3c1.1-0.1,1.7-0.6,2-1.7c0.2-0.7-0.2-1.6-1.1-2.1c-2.1-1-4.2-2.1-6.3-3
			c-1.7-0.7-3.4-1.4-5.3-1.3c-1.2,0.1-2.1,0.9-2.1,2.1c0,0.8,0.1,1.7,0,2.6c-0.2,1.9,0.9,2.6,2.3,2.9C14.6,51.3,16.7,51.4,18.8,51.7
			z M61.2,51.6c0,0,0,0.1,0,0.1c2.1-0.2,4.2-0.4,6.2-0.8c1.3-0.2,2.5-0.9,2.3-2.8c-0.1-0.8,0.1-1.7,0-2.6c-0.1-0.5-0.3-1.1-0.6-1.5
			c-0.9-1.1-2.3-0.9-3.4-0.6c-2.1,0.6-4.1,1.5-6.2,2.3c-1.3,0.5-2.5,1.2-3.7,1.8c-0.7,0.4-1.2,1.4-1,2.1c0.3,1.1,0.8,1.6,1.9,1.6
			C58.3,51.4,59.7,51.5,61.2,51.6z"/>
	</g>
</g>
</svg>
