<?xml version="1.0" encoding="utf-8"?>
<!-- Generator: Adobe Illustrator 24.0.3, SVG Export Plug-In . SVG Version: 6.00 Build 0)  -->
<svg version="1.1" id="Capa_1" xmlns="http://www.w3.org/2000/svg" xmlns:xlink="http://www.w3.org/1999/xlink" x="0px" y="0px"
	 viewBox="0 0 80 80" style="enable-background:new 0 0 80 80;" xml:space="preserve">
<style type="text/css">
	.st0{fill:#23D160;}
</style>
<g id="_x33_X1CE2_1_">
	<g>
		<path class="st0" d="M34.3,78.7c-0.1-6.9-0.8-13.8-0.2-20.6c0.3-3.8,2.5-7.5,4-11.2c1.1-2.7,1.7-5.3,1.5-8.2c-0.1-2,0-4.1,0-6.1
			c-0.2,0-0.4,0-0.4,0c-1.6,3.5-4.9,3.6-8,4.3c-1.3,0.3-2.6,0.5-3.9,0.8c-0.5,0.1-0.8,0.7-1.2,1c0.1,0.2,0.2,0.4,0.3,0.5
			c1.2,0.1,2.4,0.1,3.8,0.2c0.3,8.8,0.6,17.5,1,26.4c-6,0-11.9,0-18,0c0.3-8.8,0.6-17.5,0.9-26.4c1.3,0,2.5,0,3.7,0
			c0.7-3.5,3-5.2,6-6.2c0.4-0.2,0.8-0.3,1.3-0.4c6.4-0.8,10.9-4.3,13.8-10c0.6-1.1,1.4-2,2.1-3c2-2.7,5.2-3.5,7.9-1.7
			c4.2,2.7,8.2,5.6,12.3,8.5c0.7,0.5,1.2,1.5,1.4,2.4c0.7,2.5,1.1,5,1.6,7.5c0.3,1.6,0.5,3.1,2.2,4c0.7,0.4,1.1,1.5,1.7,2.5
			c0.9-0.1,2.1-0.3,3.5-0.5c2,8.1,4,16,6,24.3c-6,1.2-11.8,2.3-17.7,3.5c-1.4-8.3-2.7-16.4-4.1-24.7c1.3-0.3,2.5-0.6,3.5-0.8
			c0.3-1.2,0.6-2.4,0.8-3.5c0.1-0.5,0.1-1.1-0.1-1.6c-0.6-1.8-1.5-3.6-1.8-5.5c-0.7-3.6-3.5-4.9-6.2-6.6c-1.6,16.9,0.8,32.9,8.6,48
			c-2,0.9-3.5,1.6-5.2,2.4c-0.5-1-1-1.9-1.5-2.8c-1.8-3.5-3.4-7.2-5.5-10.6c-2.4-4-2.7-8.4-3.3-12.7c0-0.2-0.1-0.5-0.1-0.8
			c0,0-0.1,0-0.3-0.2c-1.8,4.5-3.7,9-3.8,14.1c-0.1,4.5-0.7,9-1.1,13.4C37.8,78.7,36.1,78.7,34.3,78.7z M65.7,43.6
			c-0.3-1.9-1.1-2.3-2.6-1.8c-1.2,0.4-2.5,0.6-1.8,2.6C62.8,44.2,64.2,43.9,65.7,43.6z M19.4,39c1.9,0,3.4,0,4.9,0
			c0-0.2,0-0.3,0-0.5c-0.7,0-1.4,0-2.1,0c-0.3-0.7-0.5-1.2-0.9-2.3C20.6,37.3,20.1,38.1,19.4,39z"/>
		<path class="st0" d="M52.3,8.4c0,4.1-3.1,7.3-7.1,7.3c-3.8,0-7.1-3.3-7-7.2c0-3.9,3.2-7.1,7.1-7.1C49.2,1.3,52.2,4.4,52.3,8.4z"/>
		<path class="st0" d="M2.6,50.1c3.6-5.4,7-10.5,10.5-15.7c1.4,0.9,2.6,1.7,3.9,2.5c0,0.2,0,0.5-0.1,0.7c-1.4,0.1-2.8,0.2-4.4,0.4
			c-0.2,5.8-0.5,11.7-0.7,17.9C8.6,53.9,5.7,52,2.6,50.1z"/>
		<path class="st0" d="M65.7,43.6c-1.6,0.3-3,0.6-4.4,0.8c-0.7-2,0.6-2.2,1.8-2.6C64.7,41.3,65.4,41.7,65.7,43.6z"/>
		<path class="st0" d="M19.4,39c0.6-0.9,1.2-1.7,1.9-2.7c0.4,1,0.6,1.6,0.9,2.3c0.7,0,1.4,0,2.1,0c0,0.2,0,0.3,0,0.5
			C22.9,39,21.4,39,19.4,39z"/>
	</g>
</g>
</svg>
