<?xml version="1.0" encoding="utf-8"?>
<!-- Generator: Adobe Illustrator 23.0.6, SVG Export Plug-In . SVG Version: 6.00 Build 0)  -->
<svg version="1.1" id="Capa_1" xmlns="http://www.w3.org/2000/svg" xmlns:xlink="http://www.w3.org/1999/xlink" x="0px" y="0px"
	 viewBox="0 0 49.51 44.39" style="enable-background:new 0 0 49.51 44.39;" xml:space="preserve">
<style type="text/css">
	.st0{fill:#FFFFFF;stroke:#FFFFFF;stroke-miterlimit:10;}
	.st1{fill:none;stroke:#FFFFFF;stroke-width:3;stroke-linecap:round;stroke-linejoin:round;stroke-miterlimit:10;}
	.st2{fill:#FFFFFF;}
</style>
<g>
	<path class="st0" d="M28.23,0.5C16.77,0.49,7.44,9.04,7.43,19.55l0,0.67c0,5.68-3.05,5.68-4.04,5.68c-1.59,0-2.89,1.29-2.89,2.89
		c0,0.67,0.23,1.32,0.66,1.83c1.9,2.39,6.34,7.99,27.05,8c11.46,0.01,20.79-8.54,20.8-19.05C49.01,9.06,39.69,0.51,28.23,0.5z
		 M28.21,36.3c-19.6-0.01-23.55-5-25.26-7.15c-0.09-0.1-0.14-0.23-0.14-0.37c0-0.32,0.26-0.58,0.58-0.58c1.91,0,6.35-0.78,6.36-7.99
		l0-0.67c0-9.23,8.3-16.74,18.49-16.74c10.19,0,18.47,7.52,18.47,16.75C46.7,28.8,38.4,36.31,28.21,36.3z"/>
	<circle class="st0" cx="34" cy="15.52" r="2.31"/>
	<circle class="st0" cx="22.45" cy="15.51" r="2.31"/>
	<path class="st1" d="M35.15,21.87c0,0-0.87,5.2-6.93,5.19s-6.93-5.2-6.93-5.2"/>
	<circle class="st2" cx="16.09" cy="39.18" r="5.2"/>
	<circle class="st2" cx="16.09" cy="39.18" r="1.73"/>
	<circle class="st2" cx="34.56" cy="39.19" r="5.2"/>
	<circle class="st2" cx="34.56" cy="39.19" r="1.73"/>
</g>
</svg>
