<?xml version="1.0" encoding="utf-8"?>
<!-- Generator: Adobe Illustrator 23.0.6, SVG Export Plug-In . SVG Version: 6.00 Build 0)  -->
<svg version="1.1" id="Capa_1" xmlns="http://www.w3.org/2000/svg" xmlns:xlink="http://www.w3.org/1999/xlink" x="0px" y="0px"
	 viewBox="0 0 45.2 45.2" style="enable-background:new 0 0 45.2 45.2;" xml:space="preserve">
<style type="text/css">
	.st0{fill:#FFFFFF;stroke:#FFFFFF;stroke-miterlimit:10;}
	.st1{fill:none;stroke:#FFFFFF;stroke-width:3;stroke-linecap:round;stroke-linejoin:round;stroke-miterlimit:10;}
	.st2{fill:#FFFFFF;}
</style>
<g>
	<path class="st2" d="M38.01,0.01L7.21,0C3.24,0,0.02,3.22,0.01,7.19L0,37.99c0,3.96,3.22,7.19,7.19,7.19l30.8,0.01
		c3.97,0,7.19-3.22,7.19-7.19l0.01-30.8C45.2,3.24,41.97,0.02,38.01,0.01z M28.28,10.03c0-3.8,3.1-6.9,6.9-6.89
		c3.8,0,6.9,3.1,6.89,6.9c0,2.5-3.84,8.61-6.9,12.82C32.11,18.64,28.28,12.53,28.28,10.03z M3.14,7.19c0-2.24,1.83-4.07,4.07-4.07
		l20.71,0.01c-1.71,1.8-2.76,4.23-2.76,6.9c0,1.55,0.81,3.67,1.94,5.88l-5.59,5.59c0,0,0,0,0,0c0,0,0,0,0,0L3.43,39.54
		c-0.2-0.48-0.31-1-0.31-1.55L3.14,7.19L3.14,7.19z M7.19,42.06c-0.55,0-1.07-0.11-1.55-0.31L22.6,24.81l16.94,16.96
		c-0.48,0.2-1,0.31-1.55,0.31L7.19,42.06z M42.06,38.01c0,0.55-0.11,1.07-0.31,1.55L24.81,22.6l3.87-3.86
		c2.22,3.7,4.77,7.05,5.26,7.69c0.3,0.38,0.75,0.61,1.24,0.61c0.48,0,0.94-0.22,1.24-0.61c0.52-0.67,3.35-4.39,5.66-8.36
		L42.06,38.01L42.06,38.01z"/>
	<path class="st2" d="M13.33,20.46c4.17,0,7.56-3.39,7.56-7.55c0-0.86-0.7-1.56-1.56-1.56l-5.99,0c-0.86,0-1.56,0.7-1.56,1.56
		s0.7,1.56,1.56,1.56l4.15,0c-0.63,1.68-2.26,2.87-4.15,2.87c-2.44,0-4.43-1.99-4.43-4.43c0-2.44,1.99-4.43,4.43-4.43
		c1.18,0,2.3,0.46,3.13,1.3c0.61,0.61,1.6,0.61,2.21,0c0.61-0.61,0.61-1.6,0-2.21c-1.43-1.43-3.32-2.21-5.34-2.21
		c-4.17,0-7.56,3.39-7.56,7.55C5.77,17.07,9.16,20.46,13.33,20.46z"/>
</g>
</svg>
