<?xml version="1.0" encoding="utf-8"?>
<!-- Generator: Adobe Illustrator 23.0.6, SVG Export Plug-In . SVG Version: 6.00 Build 0)  -->
<svg version="1.1" id="Capa_1" xmlns="http://www.w3.org/2000/svg" xmlns:xlink="http://www.w3.org/1999/xlink" x="0px" y="0px"
	 viewBox="0 0 80 80" style="enable-background:new 0 0 80 80;" xml:space="preserve">
<style type="text/css">
	.st0{fill:#FF3860;}
	.st1{fill:#23D160;}
	.st2{fill:#F18F00;}
	.st3{fill:#3273DC;}
</style>
<g>
	<path class="st0" d="M3.53,67.45c1.27-2.62,2.54-5.25,3.81-7.87c1.61-3.33,3.21-6.67,4.81-10c0.87-1.82,1.76-3.63,2.61-5.45
		c0.33-0.71,0.81-1.02,1.6-1.01c2.95,0.03,5.9,0.02,8.85,0c0.62,0,1.11,0.16,1.53,0.66c1.15,1.35,2.35,2.66,3.63,4.1
		c-0.32,0-0.52,0-0.72,0c-3.38,0-6.76,0.02-10.13-0.01c-0.95-0.01-1.49,0.39-1.89,1.24c-1.62,3.43-3.28,6.85-4.93,10.27
		c-0.66,1.38-1.33,2.75-1.98,4.13c-0.07,0.15-0.12,0.32-0.19,0.51c19.65,0,39.26,0,58.97,0c-0.32-0.68-0.61-1.33-0.91-1.96
		c-2.09-4.36-4.2-8.71-6.28-13.07c-0.36-0.76-0.88-1.12-1.73-1.11c-3.4,0.02-6.8,0.01-10.19,0.01c-0.21,0-0.42,0-0.76,0
		c0.59-0.68,1.11-1.28,1.63-1.87c0.7-0.79,1.37-1.61,2.13-2.34c0.29-0.28,0.76-0.52,1.16-0.52c3.11-0.04,6.21-0.02,9.32-0.03
		c0.68,0,1.07,0.35,1.35,0.93c0.97,2.03,1.95,4.06,2.93,6.08c1.83,3.81,3.67,7.62,5.5,11.43c0.87,1.8,1.73,3.6,2.59,5.4
		c0.06,0.13,0.17,0.25,0.25,0.37c0,0.28,0,0.55,0,0.83c-0.4,0.63-1.01,0.7-1.68,0.7c-14.36-0.01-28.72,0-43.08,0
		c-8.85,0-17.7,0-26.55,0c-0.65,0-1.24-0.09-1.62-0.7C3.53,67.92,3.53,67.68,3.53,67.45z"/>
	<path class="st0" d="M56.5,27.28c-0.04,3.47-0.56,6.07-1.73,8.51c-0.87,1.81-2.02,3.44-3.31,4.96c-1.99,2.33-4.03,4.61-5.97,6.98
		c-1.75,2.14-3.14,4.52-4.21,7.08c-0.04,0.11-0.1,0.21-0.15,0.32c-0.23,0.5-0.58,0.83-1.16,0.82c-0.58-0.01-0.91-0.37-1.14-0.86
		c-0.43-0.9-0.83-1.81-1.29-2.7c-1.35-2.63-3.15-4.93-5.08-7.14c-2.07-2.39-4.3-4.64-6.03-7.31c-2.58-3.99-3.47-8.34-2.58-13.04
		c0.7-3.7,2.42-6.86,5.14-9.42c2.8-2.62,6.11-4.07,9.95-4.3c3.36-0.21,6.48,0.51,9.36,2.22c3.29,1.95,5.64,4.74,7.06,8.32
		C56.16,23.75,56.48,25.87,56.5,27.28z M40.01,19c-4.78-0.02-8.73,3.94-8.75,8.76c-0.02,4.86,3.9,8.89,8.67,8.9
		c4.8,0.02,8.79-3.97,8.8-8.79C48.74,23.01,44.81,19.01,40.01,19z"/>
</g>
<g id="_x33_X1CE2_1_">
	<g>
		<path class="st1" d="M30.45,186.25c-0.14-6.86-0.78-13.76-0.23-20.56c0.31-3.81,2.51-7.49,4-11.18c1.08-2.66,1.71-5.34,1.54-8.23
			c-0.12-2.04-0.02-4.08-0.02-6.14c-0.19,0.02-0.37,0-0.4,0.05c-1.59,3.5-4.93,3.64-8.01,4.26c-1.31,0.26-2.63,0.46-3.91,0.83
			c-0.46,0.13-0.81,0.67-1.22,1.03c0.1,0.18,0.2,0.36,0.3,0.54c1.18,0.06,2.35,0.12,3.75,0.2c0.32,8.81,0.63,17.53,0.95,26.37
			c-6.03,0-11.92,0-18.04,0c0.31-8.75,0.62-17.46,0.93-26.38c1.34,0,2.51,0,3.69,0c0.73-3.51,3.04-5.2,5.98-6.23
			c0.42-0.15,0.84-0.33,1.28-0.38c6.39-0.84,10.87-4.33,13.82-10.04c0.56-1.07,1.36-2.02,2.09-3c1.99-2.7,5.16-3.48,7.93-1.68
			c4.17,2.72,8.24,5.59,12.27,8.51c0.69,0.5,1.21,1.51,1.44,2.38c0.65,2.48,1.12,5.01,1.63,7.52c0.32,1.56,0.52,3.07,2.16,4.02
			c0.72,0.42,1.05,1.52,1.69,2.53c0.91-0.12,2.07-0.28,3.48-0.48c1.99,8.06,3.96,16.05,5.99,24.27c-5.96,1.18-11.77,2.33-17.72,3.51
			c-1.39-8.35-2.74-16.44-4.12-24.67c1.31-0.31,2.46-0.57,3.47-0.81c0.3-1.24,0.62-2.38,0.84-3.54c0.1-0.52,0.1-1.13-0.06-1.63
			c-0.58-1.83-1.45-3.6-1.82-5.47c-0.7-3.57-3.48-4.9-6.15-6.57c-1.56,16.87,0.8,32.9,8.65,48.03c-1.95,0.9-3.48,1.61-5.18,2.39
			c-0.54-1-1.03-1.87-1.49-2.76c-1.82-3.54-3.41-7.21-5.49-10.58c-2.44-3.96-2.67-8.37-3.31-12.73c-0.04-0.25-0.07-0.51-0.12-0.76
			c-0.01-0.03-0.09-0.05-0.32-0.16c-1.85,4.54-3.74,8.99-3.84,14.08c-0.09,4.49-0.7,8.96-1.08,13.44
			C34.01,186.25,32.23,186.25,30.45,186.25z M61.91,151.19c-0.29-1.9-1.07-2.32-2.6-1.78c-1.24,0.43-2.54,0.6-1.84,2.62
			C58.94,151.75,60.34,151.49,61.91,151.19z M15.61,146.63c1.93,0,3.41,0,4.9,0c-0.01-0.16-0.01-0.32-0.02-0.47
			c-0.71,0-1.41,0-2.14,0c-0.26-0.66-0.49-1.24-0.89-2.26C16.77,144.92,16.24,145.7,15.61,146.63z"/>
		<path class="st1" d="M48.44,115.96c0.03,4.07-3.11,7.29-7.06,7.26c-3.8-0.03-7.06-3.34-7.05-7.17c0.01-3.9,3.17-7.09,7.06-7.1
			C45.36,108.94,48.41,111.97,48.44,115.96z"/>
		<path class="st1" d="M-1.2,157.69c3.59-5.37,6.99-10.46,10.47-15.66c1.38,0.9,2.63,1.72,3.87,2.53c-0.02,0.23-0.04,0.45-0.06,0.68
			c-1.4,0.11-2.8,0.23-4.41,0.36c-0.24,5.84-0.47,11.65-0.72,17.88C4.79,161.47,1.88,159.64-1.2,157.69z"/>
		<path class="st1" d="M61.91,151.19c-1.57,0.29-2.97,0.56-4.44,0.83c-0.7-2.02,0.61-2.19,1.84-2.62
			C60.84,148.88,61.61,149.29,61.91,151.19z"/>
		<path class="st1" d="M15.61,146.63c0.63-0.93,1.16-1.71,1.85-2.74c0.4,1.03,0.63,1.61,0.89,2.26c0.73,0,1.43,0,2.14,0
			c0.01,0.16,0.01,0.32,0.02,0.47C19.03,146.63,17.54,146.63,15.61,146.63z"/>
	</g>
</g>
<g>
	<path class="st2" d="M18.83,262.77h-8.11l2.82,18.48c0.34,2.21,2.38,3.73,4.57,3.39c2.19-0.34,3.69-2.41,3.35-4.63L18.83,262.77z
		 M18.83,262.77"/>
	<path class="st2" d="M29.66,280.02c-0.37,2.44,1.49,4.67,3.96,4.67c1.94,0,3.65-1.43,3.95-3.44l2.83-18.48h-8.07L29.66,280.02z
		 M29.66,280.02"/>
	<path class="st2" d="M73.26,225.24H49.64c-1.25,0-2.26,1.02-2.26,2.28v15.74c0,1.25,1.01,2.28,2.26,2.28h7.96v3.75h-4.26
		c-0.21,0-0.42,0.04-0.61,0.11c-0.64,0.25-1.09,0.87-1.09,1.6v0.92h-7.39c2.05-0.44,3.3-2.57,2.67-4.62
		c-0.46-1.5-4.2-13.72-4.65-15.18c-1.06-3.45-4.17-5.77-7.74-5.77h-1.92c-1.72,1.72-4.09,2.78-6.69,2.78c-2.6,0-4.97-1.06-6.69-2.78
		H18.5c-3.57,0-6.68,2.32-7.74,5.77c-0.45,1.46-4.19,13.68-4.65,15.18c-0.34,1.1-0.14,2.3,0.54,3.22c0.53,0.72,1.29,1.21,2.14,1.39
		h-7.7c-2.27,0-4.1,1.86-4.1,4.15c0,2.18,1.66,3.96,3.77,4.14v26.35c0,1.66,1.33,3.01,2.98,3.01c1.64,0,2.98-1.35,2.98-3.01
		c0-1.31,0-25.25,0-26.33h52.57v26.33c0,1.66,1.33,3.01,2.98,3.01c1.64,0,2.97-1.35,2.97-3.01c0-1.31,0-25.25,0-26.33h0.2
		c2.27,0,4.48-1.87,4.48-4.15c0-2.29-2.2-4.15-4.48-4.15H65.3c0-2.26,0-4.13,0-6.39h7.96c1.25,0,2.26-1.02,2.26-2.28v-15.74
		C75.52,226.27,74.51,225.24,73.26,225.24L73.26,225.24z M30.18,244.77c-1.98,0-3.58,1.62-3.58,3.63c0,1.74,1.21,3.19,2.83,3.54
		h-5.81c1.62-0.35,2.83-1.8,2.83-3.54c0-2-1.6-3.63-3.58-3.63h-8.47c0.19-0.63,1.81-5.9,2.01-6.57v4.41h3.63l-1.87-4.31
		c-0.29-0.68,0.01-1.46,0.68-1.76c0.67-0.3,1.45,0.01,1.74,0.69l2.33,5.38c1.37,0.01,2.62,0.51,3.6,1.34
		c0.99-0.84,2.27-1.34,3.66-1.34h6.39v-4.63c0.45,1.47,1.69,5.51,2.08,6.79L30.18,244.77L30.18,244.77z M30.18,244.77"/>
	<path class="st2" d="M28.79,212.56c3.79,1.59,5.59,5.99,4.02,9.82c-1.57,3.83-5.92,5.65-9.7,4.06c-3.79-1.59-5.59-5.99-4.02-9.82
		C20.65,212.79,25,210.97,28.79,212.56L28.79,212.56z M28.79,212.56"/>
</g>
<g id="HdLu2m_1_">
	<g>
		<path class="st3" d="M337.11,70.14c-1.26-0.72-1.61-1.8-1.6-3.25c0.06-6.81,0.03-13.62,0.03-20.43c0-2.15-0.21-4.32,0.96-6.4
			c-1.02,0-1.89,0.01-2.75,0c-1.55-0.02-2.29-0.97-1.88-2.49c0.28-1.02,0.58-2.05,1-3.02c0.65-1.5,1.89-2.2,3.48-2.27
			c0.9-0.04,1.8-0.01,2.75-0.01c0.85-2.44,1.68-4.88,2.56-7.3c1.08-2.94,2.15-5.89,3.34-8.78c0.73-1.77,2.26-2.8,3.95-3.55
			c1.12-0.5,2.23-1.1,3.4-1.38c2.02-0.48,4.08-0.92,6.15-1.07c4.24-0.3,8.49-0.53,12.74-0.52c3.3,0.01,6.61,0.42,9.91,0.66
			c2.81,0.21,5.5,0.95,8.06,2.13c2.26,1.04,3.74,2.74,4.57,5.17c1.6,4.74,3.36,9.42,5.08,14.12c0.09,0.23,0.47,0.45,0.74,0.5
			c0.48,0.08,0.99,0.04,1.48,0.02c2.56-0.13,3.97,0.97,4.73,3.39c0.21,0.66,0.38,1.33,0.56,1.99c0.35,1.35-0.36,2.35-1.73,2.4
			c-0.92,0.03-1.85,0.01-2.94,0.01c1.4,2.52,0.95,5.16,0.96,7.73c0.04,6.37-0.02,12.74,0.04,19.1c0.01,1.45-0.34,2.53-1.6,3.25
			c-3.91,0-7.81,0-11.72,0c-1.38-0.74-1.82-1.95-1.76-3.47c0.05-1.31,0.01-2.62,0.01-3.92c-12.42,0-24.71,0-37.07,0
			c0,1.34-0.04,2.63,0.01,3.92c0.06,1.51-0.38,2.72-1.76,3.47C344.92,70.14,341.02,70.14,337.11,70.14z M393.17,33.25
			c-0.52-1.91-0.98-3.84-1.59-5.73c-0.82-2.52-1.87-4.96-2.6-7.5c-0.5-1.73-1.68-2.49-3.15-2.95c-3.76-1.16-7.67-1.47-11.55-1.56
			c-4.78-0.12-9.58-0.33-14.35,0.31c-2.38,0.32-4.76,0.61-7.11,1.09c-1.37,0.28-2.71,0.85-3.3,2.35c-0.59,1.5-1.23,2.98-1.73,4.51
			c-1.01,3.11-1.94,6.25-2.89,9.36C351.18,36.88,386.08,36.91,393.17,33.25z M347.92,51.59c0.01-0.04,0.02-0.08,0.03-0.12
			c1.41-0.09,2.82-0.17,4.23-0.26c1.14-0.07,1.73-0.56,2.01-1.65c0.18-0.69-0.21-1.63-1.08-2.07c-2.08-1.05-4.2-2.06-6.33-3
			c-1.67-0.74-3.38-1.41-5.28-1.26c-1.21,0.09-2.08,0.92-2.11,2.14c-0.02,0.85,0.07,1.71-0.02,2.56c-0.2,1.91,0.91,2.61,2.32,2.88
			C343.74,51.21,345.84,51.34,347.92,51.59z M390.29,51.46c0.01,0.04,0.02,0.08,0.03,0.12c2.08-0.24,4.18-0.38,6.23-0.77
			c1.32-0.25,2.49-0.94,2.3-2.82c-0.09-0.85,0.06-1.72-0.04-2.56c-0.06-0.51-0.28-1.07-0.6-1.46c-0.92-1.13-2.27-0.92-3.38-0.6
			c-2.1,0.61-4.13,1.45-6.15,2.29c-1.26,0.52-2.47,1.18-3.67,1.85c-0.74,0.41-1.15,1.41-0.98,2.06c0.28,1.06,0.85,1.56,1.93,1.64
			C387.41,51.3,388.85,51.38,390.29,51.46z"/>
	</g>
</g>
</svg>
